{
  "accessors": [
    {
      "bufferView": 2,
      "componentType": 5126,
      "count": 21141,
      "max": [
        83.89180755615234,
        -4.58212423324585,
        228.40220642089844
      ],
      "min": [
        57.27646255493164,
        -102.37052154541016,
        0.18594400584697723
      ],
      "type": "VEC3"
    },
    {
      "bufferView": 2,
      "byteOffset": 253692,
      "componentType": 5126,
      "count": 21141,
      "max": [
        0.9997952580451965,
        0.9999986290931702,
        1.0
      ],
      "min": [
        -0.9999961256980896,
        -0.9999911189079285,
        -0.9986425042152405
      ],
      "type": "VEC3"
    },
    {
      "bufferView": 1,
      "componentType": 5126,
      "count": 21141,
      "max": [
        1.0,
        1.0
      ],
      "min": [
        -0.0,
        0.008142000064253807
      ],
      "type": "VEC2"
    },
    {
      "bufferView": 0,
      "componentType": 5125,
      "count": 104904,
      "type": "SCALAR"
    },
    {
      "bufferView": 2,
      "byteOffset": 507384,
      "componentType": 5126,
      "count": 21141,
      "max": [
        83.89180755615234,
        130.40301513671875,
        228.40220642089844
      ],
      "min": [
        57.27646255493164,
        32.614627838134766,
        0.18594400584697723
      ],
      "type": "VEC3"
    },
    {
      "bufferView": 2,
      "byteOffset": 761076,
      "componentType": 5126,
      "count": 21141,
      "max": [
        0.9997952580451965,
        0.9999911189079285,
        1.0
      ],
      "min": [
        -0.9999961256980896,
        -0.9999986290931702,
        -0.99864262342453
      ],
      "type": "VEC3"
    },
    {
      "bufferView": 1,
      "byteOffset": 169128,
      "componentType": 5126,
      "count": 21141,
      "max": [
        1.0,
        1.0
      ],
      "min": [
        -0.0,
        0.008142000064253807
      ],
      "type": "VEC2"
    },
    {
      "bufferView": 0,
      "byteOffset": 419616,
      "componentType": 5125,
      "count": 104904,
      "type": "SCALAR"
    },
    {
      "bufferView": 2,
      "byteOffset": 1014768,
      "componentType": 5126,
      "count": 2381,
      "max": [
        84.77920532226563,
        120.0445327758789,
        229.65589904785156
      ],
      "min": [
        73.43809509277344,
        -92.25609588623047,
        116.24099731445313
      ],
      "type": "VEC3"
    },
    {
      "bufferView": 2,
      "byteOffset": 1043340,
      "componentType": 5126,
      "count": 2381,
      "max": [
        1.0,
        1.0,
        1.0
      ],
      "min": [
        -1.0,
        -1.0,
        -1.0
      ],
      "type": "VEC3"
    },
    {
      "bufferView": 3,
      "componentType": 5126,
      "count": 2381,
      "max": [
        1.0,
        1.0,
        1.0,
        1.0
      ],
      "min": [
        -0.9988074898719788,
        -1.0,
        -1.0,
        -1.0
      ],
      "type": "VEC4"
    },
    {
      "bufferView": 1,
      "byteOffset": 338256,
      "componentType": 5126,
      "count": 2381,
      "max": [
        0.9867420196533203,
        1.0
      ],
      "min": [
        0.0,
        0.0005920000257901847
      ],
      "type": "VEC2"
    },
    {
      "bufferView": 1,
      "byteOffset": 357304,
      "componentType": 5126,
      "count": 2381,
      "max": [
        0.9900000095367432,
        1.0
      ],
      "min": [
        0.0,
        0.0005920000257901847
      ],
      "type": "VEC2"
    },
    {
      "bufferView": 0,
      "byteOffset": 839232,
      "componentType": 5125,
      "count": 7746,
      "type": "SCALAR"
    }
  ],
  "asset": {
    "extras": {
      "author": "Graham Rust (https://sketchfab.com/GRXR.ca)",
      "license": "SKETCHFAB Standard (https://sketchfab.com/licenses)",
      "source": "https://sketchfab.com/3d-models/curtains-ca2b689eb33c41d59f527100c6b6f158",
      "title": "Curtains"
    },
    "generator": "Sketchfab-16.12.0",
    "version": "2.0"
  },
  "bufferViews": [
    {
      "buffer": 0,
      "byteLength": 870216,
      "name": "floatBufferViews",
      "target": 34963
    },
    {
      "buffer": 0,
      "byteLength": 376352,
      "byteOffset": 870216,
      "byteStride": 8,
      "name": "floatBufferViews",
      "target": 34962
    },
    {
      "buffer": 0,
      "byteLength": 1071912,
      "byteOffset": 1246568,
      "byteStride": 12,
      "name": "floatBufferViews",
      "target": 34962
    },
    {
      "buffer": 0,
      "byteLength": 38096,
      "byteOffset": 2318480,
      "byteStride": 16,
      "name": "floatBufferViews",
      "target": 34962
    }
  ],
  "buffers": [
    {
      "byteLength": 2356576,
      "uri": "scene.bin"
    }
  ],
  "extensionsUsed": [
    "KHR_texture_transform"
  ],
  "images": [
    {
      "uri": "textures/curtainrodT_baseColor.jpeg"
    },
    {
      "uri": "textures/curtainrodT_metallicRoughness.png"
    },
    {
      "uri": "textures/curtainrodT_normal.png"
    },
    {
      "uri": "textures/curtaintex_baseColor.png"
    },
    {
      "uri": "textures/curtaintex_metallicRoughness.png"
    }
  ],
  "materials": [
    {
      "doubleSided": true,
      "name": "curtainrodT",
      "normalTexture": {
        "index": 2
      },
      "pbrMetallicRoughness": {
        "baseColorTexture": {
          "index": 0
        },
        "metallicRoughnessTexture": {
          "index": 1
        }
      }
    },
    {
      "doubleSided": true,
      "name": "curtaintex",
      "pbrMetallicRoughness": {
        "baseColorTexture": {
          "extensions": {
            "KHR_texture_transform": {
              "scale": [
                15.763000000000003,
                11.000000000000012
              ]
            }
          },
          "index": 3
        },
        "metallicRoughnessTexture": {
          "index": 4
        }
      }
    }
  ],
  "meshes": [
    {
      "name": "defaultMaterial",
      "primitives": [
        {
          "attributes": {
            "NORMAL": 1,
            "POSITION": 0,
            "TEXCOORD_0": 2
          },
          "indices": 3,
          "material": 1,
          "mode": 4
        }
      ]
    },
    {
      "name": "defaultMaterial",
      "primitives": [
        {
          "attributes": {
            "NORMAL": 5,
            "POSITION": 4,
            "TEXCOORD_0": 6
          },
          "indices": 7,
          "material": 1,
          "mode": 4
        }
      ]
    },
    {
      "name": "defaultMaterial",
      "primitives": [
        {
          "attributes": {
            "NORMAL": 9,
            "POSITION": 8,
            "TANGENT": 10,
            "TEXCOORD_0": 11,
            "TEXCOORD_1": 12
          },
          "indices": 13,
          "material": 0,
          "mode": 4
        }
      ]
    }
  ],
  "nodes": [
    {
      "children": [
        1
      ],
      "matrix": [
        2.220446049250313e-16,
        2.220446049250313e-16,
        -1.0,
        0.0,
        -1.0,
        4.930380657631324e-32,
        -2.220446049250313e-16,
        0.0,
        0.0,
        1.0,
        2.220446049250313e-16,
        0.0,
        0.0,
        0.0,
        0.0,
        1.0
      ],
      "name": "Sketchfab_model"
    },
    {
      "children": [
        2,
        7
      ],
      "matrix": [
        1.0,
        0.0,
        0.0,
        0.0,
        0.0,
        -4.371139006309477e-08,
        0.999999999999999,
        0.0,
        0.0,
        -0.999999999999999,
        -4.371139006309477e-08,
        0.0,
        0.0,
        0.0,
        0.0,
        1.0
      ],
      "name": "Collada visual scene group"
    },
    {
      "children": [
        3,
        5
      ],
      "matrix": [
        1.0,
        0.0,
        0.0,
        0.0,
        0.0,
        0.0,
        -1.0,
        0.0,
        0.0,
        1.0,
        0.0,
        0.0,
        0.0,
        0.0,
        0.0,
        1.0
      ],
      "name": "polySurface3331"
    },
    {
      "children": [
        4
      ],
      "name": "polySurface3332"
    },
    {
      "mesh": 0,
      "name": "defaultMaterial"
    },
    {
      "children": [
        6
      ],
      "name": "polySurface3333"
    },
    {
      "mesh": 1,
      "name": "defaultMaterial"
    },
    {
      "children": [
        8
      ],
      "matrix": [
        1.0,
        0.0,
        0.0,
        0.0,
        0.0,
        0.0,
        -1.0,
        0.0,
        0.0,
        1.0,
        0.0,
        0.0,
        0.0,
        0.0,
        0.0,
        1.0
      ],
      "name": "polySurface3140"
    },
    {
      "mesh": 2,
      "name": "defaultMaterial"
    }
  ],
  "samplers": [
    {
      "magFilter": 9729,
      "minFilter": 9987,
      "wrapS": 10497,
      "wrapT": 10497
    }
  ],
  "scene": 0,
  "scenes": [
    {
      "name": "Sketchfab_Scene",
      "nodes": [
        0
      ]
    }
  ],
  "textures": [
    {
      "sampler": 0,
      "source": 0
    },
    {
      "sampler": 0,
      "source": 1
    },
    {
      "sampler": 0,
      "source": 2
    },
    {
      "sampler": 0,
      "source": 3
    },
    {
      "sampler": 0,
      "source": 4
    }
  ]
}
