{
  "accessors": [
    {
      "bufferView": 2,
      "componentType": 5126,
      "count": 9412,
      "max": [
        1.8690357208251953,
        6.064819812774658,
        1.8690357208251953
      ],
      "min": [
        -1.8690357208251953,
        0.0,
        -1.8690357208251953
      ],
      "type": "VEC3"
    },
    {
      "bufferView": 2,
      "byteOffset": 112944,
      "componentType": 5126,
      "count": 9412,
      "max": [
        0.9999986290931702,
        1.0,
        0.9999986290931702
      ],
      "min": [
        -0.9999986290931702,
        -1.0,
        -0.9999993443489075
      ],
      "type": "VEC3"
    },
    {
      "bufferView": 1,
      "componentType": 5126,
      "count": 9412,
      "max": [
        0.9852644801139832,
        0.9848880767822266
      ],
      "min": [
        0.015572994947433472,
        0.00734659843146801
      ],
      "type": "VEC2"
    },
    {
      "bufferView": 0,
      "componentType": 5125,
      "count": 46680,
      "type": "SCALAR"
    },
    {
      "bufferView": 3,
      "componentType": 5126,
      "count": 500,
      "max": [
        20.83333396911621
      ],
      "min": [
        0.0416666679084301
      ],
      "type": "SCALAR"
    },
    {
      "bufferView": 4,
      "componentType": 5126,
      "count": 500,
      "max": [
        0.0,
        0.9999950528144836,
        -0.0,
        1.0
      ],
      "min": [
        0.0,
        -0.9999950528144836,
        -0.0,
        0.0031477920711040497
      ],
      "type": "VEC4"
    }
  ],
  "animations": [
    {
      "channels": [
        {
          "sampler": 0,
          "target": {
            "node": 3,
            "path": "rotation"
          }
        }
      ],
      "name": "Action",
      "samplers": [
        {
          "input": 4,
          "interpolation": "LINEAR",
          "output": 5
        }
      ]
    }
  ],
  "asset": {
    "extras": {
      "author": "Shaina (Regan) Alvarez (https://sketchfab.com/regan.alv)",
      "license": "SKETCHFAB Standard (https://sketchfab.com/licenses)",
      "source": "https://sketchfab.com/3d-models/vintage-lamp-d550c35f184449b5ab8e63a630f20080",
      "title": "Vintage Lamp"
    },
    "generator": "Sketchfab-16.7.0",
    "version": "2.0"
  },
  "bufferViews": [
    {
      "buffer": 0,
      "byteLength": 186720,
      "name": "floatBufferViews",
      "target": 34963
    },
    {
      "buffer": 0,
      "byteLength": 75296,
      "byteOffset": 186720,
      "byteStride": 8,
      "name": "floatBufferViews",
      "target": 34962
    },
    {
      "buffer": 0,
      "byteLength": 225888,
      "byteOffset": 262016,
      "byteStride": 12,
      "name": "floatBufferViews",
      "target": 34962
    },
    {
      "buffer": 0,
      "byteLength": 2000,
      "byteOffset": 487904,
      "name": "floatBufferViews"
    },
    {
      "buffer": 0,
      "byteLength": 8000,
      "byteOffset": 489904,
      "byteStride": 16,
      "name": "floatBufferViews"
    }
  ],
  "buffers": [
    {
      "byteLength": 497904,
      "uri": "scene.bin"
    }
  ],
  "images": [
    {
      "uri": "textures/Lamp_baseColor.png"
    },
    {
      "uri": "textures/Lamp_metallicRoughness.png"
    }
  ],
  "materials": [
    {
      "doubleSided": true,
      "name": "Lamp",
      "pbrMetallicRoughness": {
        "baseColorTexture": {
          "index": 0
        },
        "metallicRoughnessTexture": {
          "index": 1
        }
      }
    }
  ],
  "meshes": [
    {
      "name": "Object_0",
      "primitives": [
        {
          "attributes": {
            "NORMAL": 1,
            "POSITION": 0,
            "TEXCOORD_0": 2
          },
          "indices": 3,
          "material": 0,
          "mode": 4
        }
      ]
    }
  ],
  "nodes": [
    {
      "children": [
        1
      ],
      "matrix": [
        1.0,
        0.0,
        0.0,
        0.0,
        0.0,
        2.220446049250313e-16,
        -1.0,
        0.0,
        0.0,
        1.0,
        2.220446049250313e-16,
        0.0,
        0.0,
        0.0,
        0.0,
        1.0
      ],
      "name": "Sketchfab_model"
    },
    {
      "children": [
        2
      ],
      "name": "root"
    },
    {
      "children": [
        3
      ],
      "matrix": [
        1.0,
        0.0,
        0.0,
        0.0,
        0.0,
        2.220446049250313e-16,
        1.0,
        0.0,
        0.0,
        -1.0,
        2.220446049250313e-16,
        0.0,
        0.0,
        0.0,
        0.0,
        1.0
      ],
      "name": "GLTF_SceneRootNode"
    },
    {
      "children": [
        4
      ],
      "name": "Lamp A_0"
    },
    {
      "mesh": 0,
      "name": "Object_4"
    }
  ],
  "samplers": [
    {
      "magFilter": 9729,
      "minFilter": 9987,
      "wrapS": 10497,
      "wrapT": 10497
    }
  ],
  "scene": 0,
  "scenes": [
    {
      "name": "Sketchfab_Scene",
      "nodes": [
        0
      ]
    }
  ],
  "textures": [
    {
      "sampler": 0,
      "source": 0
    },
    {
      "sampler": 0,
      "source": 1
    }
  ]
}
