{
  "accessors": [
    {
      "bufferView": 2,
      "componentType": 5126,
      "count": 2133,
      "max": [
        0.1535501629114151,
        0.1535501629114151,
        0.15685515105724335
      ],
      "min": [
        -0.1535501629114151,
        -0.1535501629114151,
        -0.14991064369678497
      ],
      "type": "VEC3"
    },
    {
      "bufferView": 2,
      "byteOffset": 25596,
      "componentType": 5126,
      "count": 2133,
      "max": [
        0.9937074184417725,
        0.9937074780464172,
        1.0
      ],
      "min": [
        -0.9937074184417725,
        -0.9937074184417725,
        -1.0
      ],
      "type": "VEC3"
    },
    {
      "bufferView": 1,
      "componentType": 5126,
      "count": 2133,
      "max": [
        1.0000001192092896,
        1.0000001192092896
      ],
      "min": [
        0.0,
        0.010074662044644356
      ],
      "type": "VEC2"
    },
    {
      "bufferView": 0,
      "componentType": 5125,
      "count": 10368,
      "type": "SCALAR"
    },
    {
      "bufferView": 2,
      "byteOffset": 51192,
      "componentType": 5126,
      "count": 3700,
      "max": [
        0.10680336505174637,
        0.141341432929039,
        0.13204830884933472
      ],
      "min": [
        -0.14650684595108032,
        -0.13292497396469116,
        0.11797714233398438
      ],
      "type": "VEC3"
    },
    {
      "bufferView": 2,
      "byteOffset": 95592,
      "componentType": 5126,
      "count": 3700,
      "max": [
        0.9905354380607605,
        0.9993121027946472,
        0.9989689588546753
      ],
      "min": [
        -0.9996676445007324,
        -0.9997397065162659,
        -0.9998892545700073
      ],
      "type": "VEC3"
    },
    {
      "bufferView": 1,
      "byteOffset": 17064,
      "componentType": 5126,
      "count": 3700,
      "max": [
        1.0000001192092896,
        1.0000001192092896
      ],
      "min": [
        -0.008538508787751198,
        0.0
      ],
      "type": "VEC2"
    },
    {
      "bufferView": 0,
      "byteOffset": 41472,
      "componentType": 5125,
      "count": 19026,
      "type": "SCALAR"
    },
    {
      "bufferView": 2,
      "byteOffset": 139992,
      "componentType": 5126,
      "count": 16250,
      "max": [
        0.23275649547576904,
        0.20469564199447632,
        0.2431798279285431
      ],
      "min": [
        -0.285268634557724,
        -0.2530002295970917,
        0.10658226907253265
      ],
      "type": "VEC3"
    },
    {
      "bufferView": 2,
      "byteOffset": 334992,
      "componentType": 5126,
      "count": 16250,
      "max": [
        0.9999372959136963,
        0.9998595118522644,
        0.9999809861183167
      ],
      "min": [
        -0.9974616765975952,
        -0.9971509575843811,
        -0.9999970197677612
      ],
      "type": "VEC3"
    },
    {
      "bufferView": 1,
      "byteOffset": 46664,
      "componentType": 5126,
      "count": 16250,
      "max": [
        1.000000238418579,
        1.000000238418579
      ],
      "min": [
        0.0,
        0.0
      ],
      "type": "VEC2"
    },
    {
      "bufferView": 0,
      "byteOffset": 117576,
      "componentType": 5125,
      "count": 97344,
      "type": "SCALAR"
    },
    {
      "bufferView": 2,
      "byteOffset": 529992,
      "componentType": 5126,
      "count": 192,
      "max": [
        0.14211034774780273,
        0.143130362033844,
        0.004999995231628418
      ],
      "min": [
        -0.14211034774780273,
        -0.143130362033844,
        -0.004999995231628418
      ],
      "type": "VEC3"
    },
    {
      "bufferView": 2,
      "byteOffset": 532296,
      "componentType": 5126,
      "count": 192,
      "max": [
        0.9952526092529297,
        0.9951159358024597,
        1.0
      ],
      "min": [
        -0.9952526092529297,
        -0.9951159358024597,
        -1.0
      ],
      "type": "VEC3"
    },
    {
      "bufferView": 1,
      "byteOffset": 176664,
      "componentType": 5126,
      "count": 192,
      "max": [
        1.0,
        1.0
      ],
      "min": [
        0.0,
        0.01000000536441803
      ],
      "type": "VEC2"
    },
    {
      "bufferView": 0,
      "byteOffset": 506952,
      "componentType": 5125,
      "count": 372,
      "type": "SCALAR"
    }
  ],
  "asset": {
    "extras": {
      "author": "Maria de Fatima (https://sketchfab.com/kafezinn)",
      "license": "SKETCHFAB Standard (https://sketchfab.com/licenses)",
      "source": "https://sketchfab.com/3d-models/plant-asset-cd659a5ce66d46cf93ec3348c316e918",
      "title": "Plant Asset"
    },
    "generator": "Sketchfab-15.83.0",
    "version": "2.0"
  },
  "bufferViews": [
    {
      "buffer": 0,
      "byteLength": 508440,
      "name": "floatBufferViews",
      "target": 34963
    },
    {
      "buffer": 0,
      "byteLength": 178200,
      "byteOffset": 508440,
      "byteStride": 8,
      "name": "floatBufferViews",
      "target": 34962
    },
    {
      "buffer": 0,
      "byteLength": 534600,
      "byteOffset": 686640,
      "byteStride": 12,
      "name": "floatBufferViews",
      "target": 34962
    }
  ],
  "buffers": [
    {
      "byteLength": 1221240,
      "uri": "scene.bin"
    }
  ],
  "images": [
    {
      "uri": "textures/Material.002_baseColor.jpeg"
    }
  ],
  "materials": [
    {
      "doubleSided": true,
      "name": "Material.004",
      "pbrMetallicRoughness": {
        "metallicFactor": 0.0,
        "roughnessFactor": 0.7200955983284686
      }
    },
    {
      "doubleSided": true,
      "name": "Material.003",
      "pbrMetallicRoughness": {
        "baseColorFactor": [
          0.517647,
          0.517647,
          0.517647,
          1.0
        ],
        "metallicFactor": 0.0
      }
    },
    {
      "doubleSided": true,
      "name": "Material.001",
      "pbrMetallicRoughness": {
        "baseColorFactor": [
          0.269518,
          0.558902,
          0.104047,
          1.0
        ],
        "metallicFactor": 0.0,
        "roughnessFactor": 0.8780663114446899
      }
    },
    {
      "doubleSided": true,
      "name": "Material.002",
      "pbrMetallicRoughness": {
        "baseColorTexture": {
          "index": 0
        },
        "metallicFactor": 0.0
      }
    }
  ],
  "meshes": [
    {
      "name": "plant asset_Material.004_0",
      "primitives": [
        {
          "attributes": {
            "NORMAL": 1,
            "POSITION": 0,
            "TEXCOORD_0": 2
          },
          "indices": 3,
          "material": 0,
          "mode": 4
        }
      ]
    },
    {
      "name": "plant asset_Material.003_0",
      "primitives": [
        {
          "attributes": {
            "NORMAL": 5,
            "POSITION": 4,
            "TEXCOORD_0": 6
          },
          "indices": 7,
          "material": 1,
          "mode": 4
        }
      ]
    },
    {
      "name": "plant asset_Material.001_0",
      "primitives": [
        {
          "attributes": {
            "NORMAL": 9,
            "POSITION": 8,
            "TEXCOORD_0": 10
          },
          "indices": 11,
          "material": 2,
          "mode": 4
        }
      ]
    },
    {
      "name": "Cylinder_Material.002_0",
      "primitives": [
        {
          "attributes": {
            "NORMAL": 13,
            "POSITION": 12,
            "TEXCOORD_0": 14
          },
          "indices": 15,
          "material": 3,
          "mode": 4
        }
      ]
    }
  ],
  "nodes": [
    {
      "children": [
        1
      ],
      "matrix": [
        1.0,
        0.0,
        0.0,
        0.0,
        0.0,
        2.220446049250313e-16,
        -1.0,
        0.0,
        0.0,
        1.0,
        2.220446049250313e-16,
        0.0,
        0.0,
        0.0,
        0.0,
        1.0
      ],
      "name": "Sketchfab_model"
    },
    {
      "children": [
        2
      ],
      "matrix": [
        0.009999999776482582,
        0.0,
        0.0,
        0.0,
        0.0,
        0.0,
        0.009999999776482582,
        0.0,
        0.0,
        -0.009999999776482582,
        0.0,
        0.0,
        0.0,
        0.0,
        0.0,
        1.0
      ],
      "name": "3b4c30c747054bc69f2afe0ee79a80ab.fbx"
    },
    {
      "children": [
        3,
        7
      ],
      "name": "RootNode"
    },
    {
      "children": [
        4,
        5,
        6
      ],
      "matrix": [
        100.0,
        0.0,
        0.0,
        0.0,
        0.0,
        -1.629206793918314e-05,
        -99.99999999999868,
        0.0,
        0.0,
        74.999999999999,
        -1.2219050954387356e-05,
        0.0,
        0.0,
        0.0,
        0.0,
        1.0
      ],
      "name": "plant asset"
    },
    {
      "mesh": 0,
      "name": "plant asset_Material.004_0"
    },
    {
      "mesh": 1,
      "name": "plant asset_Material.003_0"
    },
    {
      "mesh": 2,
      "name": "plant asset_Material.001_0"
    },
    {
      "children": [
        8
      ],
      "matrix": [
        100.0,
        0.0,
        0.0,
        0.0,
        0.0,
        -1.629206793918314e-05,
        -99.99999999999868,
        0.0,
        0.0,
        99.99999999999868,
        -1.629206793918314e-05,
        0.0,
        0.0,
        8.88037395477295,
        0.0,
        1.0
      ],
      "name": "Cylinder"
    },
    {
      "mesh": 3,
      "name": "Cylinder_Material.002_0"
    }
  ],
  "samplers": [
    {
      "magFilter": 9729,
      "minFilter": 9987,
      "wrapS": 10497,
      "wrapT": 10497
    }
  ],
  "scene": 0,
  "scenes": [
    {
      "name": "Sketchfab_Scene",
      "nodes": [
        0
      ]
    }
  ],
  "textures": [
    {
      "sampler": 0,
      "source": 0
    }
  ]
}
