{
  "accessors": [
    {
      "bufferView": 2,
      "componentType": 5126,
      "count": 2487,
      "max": [
        0.6098729968070984,
        0.2598295211791992,
        0.7736089825630188
      ],
      "min": [
        -0.6098729968070984,
        -0.25982946157455444,
        -0.00016601734387222677
      ],
      "type": "VEC3"
    },
    {
      "bufferView": 2,
      "byteOffset": 29844,
      "componentType": 5126,
      "count": 2487,
      "max": [
        1.0,
        1.0,
        1.0
      ],
      "min": [
        -1.0,
        -1.0,
        -1.0
      ],
      "type": "VEC3"
    },
    {
      "bufferView": 3,
      "componentType": 5126,
      "count": 2487,
      "max": [
        0.9995302557945251,
        1.0,
        1.0,
        1.0
      ],
      "min": [
        -0.9991873502731323,
        -1.0,
        -1.0,
        1.0
      ],
      "type": "VEC4"
    },
    {
      "bufferView": 1,
      "componentType": 5126,
      "count": 2487,
      "max": [
        0.935818612575531,
        0.9703612923622131
      ],
      "min": [
        0.040434665977954865,
        0.041852958500385284
      ],
      "type": "VEC2"
    },
    {
      "bufferView": 1,
      "byteOffset": 19896,
      "componentType": 5126,
      "count": 2487,
      "max": [
        0.935818612575531,
        0.9703612923622131
      ],
      "min": [
        0.040434665977954865,
        0.041852958500385284
      ],
      "type": "VEC2"
    },
    {
      "bufferView": 1,
      "byteOffset": 39792,
      "componentType": 5126,
      "count": 2487,
      "max": [
        0.935818612575531,
        0.9703612923622131
      ],
      "min": [
        0.040434665977954865,
        0.041852958500385284
      ],
      "type": "VEC2"
    },
    {
      "bufferView": 0,
      "componentType": 5125,
      "count": 12012,
      "type": "SCALAR"
    }
  ],
  "asset": {
    "extras": {
      "author": "Twpic (https://sketchfab.com/TWPIC)",
      "license": "SKETCHFAB Standard (https://sketchfab.com/licenses)",
      "source": "https://sketchfab.com/3d-models/console-table-2415939d113844d88a0e032844d74a82",
      "title": "Console Table"
    },
    "generator": "Sketchfab-16.16.0",
    "version": "2.0"
  },
  "bufferViews": [
    {
      "buffer": 0,
      "byteLength": 48048,
      "name": "floatBufferViews",
      "target": 34963
    },
    {
      "buffer": 0,
      "byteLength": 59688,
      "byteOffset": 48048,
      "byteStride": 8,
      "name": "floatBufferViews",
      "target": 34962
    },
    {
      "buffer": 0,
      "byteLength": 59688,
      "byteOffset": 107736,
      "byteStride": 12,
      "name": "floatBufferViews",
      "target": 34962
    },
    {
      "buffer": 0,
      "byteLength": 39792,
      "byteOffset": 167424,
      "byteStride": 16,
      "name": "floatBufferViews",
      "target": 34962
    }
  ],
  "buffers": [
    {
      "byteLength": 207216,
      "uri": "scene.bin"
    }
  ],
  "images": [
    {
      "uri": "textures/ConsoleTable_baseColor.png"
    },
    {
      "uri": "textures/ConsoleTable_metallicRoughness.png"
    },
    {
      "uri": "textures/ConsoleTable_normal.png"
    }
  ],
  "materials": [
    {
      "doubleSided": true,
      "name": "ConsoleTable",
      "normalTexture": {
        "index": 2
      },
      "pbrMetallicRoughness": {
        "baseColorTexture": {
          "index": 0
        },
        "metallicRoughnessTexture": {
          "index": 1
        }
      }
    }
  ],
  "meshes": [
    {
      "name": "ConsoleTable_ConsoleTable_0",
      "primitives": [
        {
          "attributes": {
            "NORMAL": 1,
            "POSITION": 0,
            "TANGENT": 2,
            "TEXCOORD_0": 3,
            "TEXCOORD_1": 4,
            "TEXCOORD_2": 5
          },
          "indices": 6,
          "material": 0,
          "mode": 4
        }
      ]
    }
  ],
  "nodes": [
    {
      "children": [
        1
      ],
      "matrix": [
        1.0,
        0.0,
        0.0,
        0.0,
        0.0,
        2.220446049250313e-16,
        -1.0,
        0.0,
        0.0,
        1.0,
        2.220446049250313e-16,
        0.0,
        0.0,
        0.0,
        0.0,
        1.0
      ],
      "name": "Sketchfab_model"
    },
    {
      "children": [
        2
      ],
      "matrix": [
        0.009999999776482582,
        0.0,
        0.0,
        0.0,
        0.0,
        0.0,
        0.009999999776482582,
        0.0,
        0.0,
        -0.009999999776482582,
        0.0,
        0.0,
        0.0,
        0.0,
        0.0,
        1.0
      ],
      "name": "9e817063f3164f2fb8787b4353a3d59d.fbx"
    },
    {
      "children": [
        3
      ],
      "name": "RootNode"
    },
    {
      "children": [
        4
      ],
      "matrix": [
        100.0,
        0.0,
        0.0,
        0.0,
        0.0,
        -2.8212996916465727e-05,
        -99.99999999999602,
        0.0,
        0.0,
        99.99999999999602,
        -2.8212996916465727e-05,
        0.0,
        0.0,
        0.0,
        0.0,
        1.0
      ],
      "name": "ConsoleTable"
    },
    {
      "mesh": 0,
      "name": "ConsoleTable_ConsoleTable_0"
    }
  ],
  "samplers": [
    {
      "magFilter": 9729,
      "minFilter": 9987,
      "wrapS": 10497,
      "wrapT": 10497
    }
  ],
  "scene": 0,
  "scenes": [
    {
      "name": "Sketchfab_Scene",
      "nodes": [
        0
      ]
    }
  ],
  "textures": [
    {
      "sampler": 0,
      "source": 0
    },
    {
      "sampler": 0,
      "source": 1
    },
    {
      "sampler": 0,
      "source": 2
    }
  ]
}
