# Blender v3.2.1 OBJ File: ''
# www.blender.org
mtllib livingRoomObject.mtl
o Cube_Cube.001
v -3.000000 -0.120000 3.000000
v -3.000000 0.120000 3.000000
v -3.000000 -0.120000 -3.000000
v -3.000000 0.120000 -3.000000
v 3.000000 -0.120000 3.000000
v 3.000000 0.120000 3.000000
v 3.000000 -0.120000 -3.000000
v 3.000000 0.120000 -3.000000
v -3.000000 -0.120000 3.200000
v -3.000000 0.120000 3.200000
v 3.000000 0.120000 3.200000
v 3.000000 -0.120000 3.200000
v 3.200000 0.120000 -3.000000
v 3.200000 -0.120000 -3.000000
v 3.200000 -0.120000 3.000000
v 3.200000 0.120000 3.000000
v 3.200000 0.120000 3.200000
v 3.200000 -0.120000 3.200000
v 3.000000 3.887067 -3.000000
v 3.000000 3.887067 3.000000
v -3.000000 3.887067 3.000000
v 3.000000 3.887067 3.200000
v -3.000000 3.887067 3.200000
v 3.200000 3.887067 -3.000000
v 3.200000 3.887067 3.000000
v 3.200000 3.887067 3.200000
vt -0.395021 -1.455394
vt 0.727389 -1.455394
vt 0.727389 -0.332985
vt -0.395021 -0.332985
vt 0.727389 0.789425
vt -0.395021 0.789425
vt -0.395021 1.911835
vt -0.395021 0.789425
vt -0.395021 1.911835
vt -0.395021 -1.455394
vt 0.727389 -1.455394
vt -1.517431 0.789425
vt -1.517431 1.911835
vt 1.849799 0.789425
vt 1.849799 1.911835
vt 0.727389 1.911835
vt -0.395021 1.911835
vt 0.727389 1.911835
vt 0.727389 3.034245
vt -0.395021 3.034245
vt -1.517431 1.911835
vt 0.727389 -1.455394
vt 0.727389 -1.455394
vt -0.395021 1.911835
vt 0.727389 0.789425
vt 0.727389 1.911835
vt 0.727389 1.911835
vt 0.727389 1.911835
vt 0.727389 0.789425
vt 0.727389 1.911835
vt 0.727389 1.911835
vt 1.849799 1.911835
vt 1.849799 1.911835
vt 0.727389 1.911835
vt 0.727389 0.789425
vt 0.727389 3.034245
vn -1.0000 0.0000 0.0000
vn 0.0000 0.0000 -1.0000
vn 0.0000 -1.0000 0.0000
vn 0.0000 1.0000 0.0000
vn 0.0000 0.0000 1.0000
vn 1.0000 0.0000 0.0000
usemtl Material.001
s off
f 1/1/1 2/2/1 4/3/1 3/4/1
f 3/4/2 4/3/2 8/5/2 7/6/2
f 5/7/3 7/6/3 14/8/3 15/9/3
f 2/2/1 1/1/1 9/10/1 10/11/1
f 3/12/3 7/6/3 5/7/3 1/13/3
f 8/5/4 4/14/4 2/15/4 6/16/4
f 12/17/5 11/18/5 10/19/5 9/20/5
f 1/13/3 5/7/3 12/17/3 9/21/3
f 2/2/1 10/11/1 23/22/1 21/23/1
f 12/17/3 5/7/3 15/9/3 18/24/3
f 14/8/6 13/25/6 16/26/6 15/9/6
f 15/9/6 16/26/6 17/27/6 18/24/6
f 8/5/1 6/16/1 20/28/1 19/29/1
f 11/18/5 17/27/5 26/30/5 22/31/5
f 7/6/2 8/5/2 13/25/2 14/8/2
f 11/18/5 12/17/5 18/24/5 17/27/5
f 20/28/4 21/32/4 23/33/4 22/31/4
f 20/28/4 22/31/4 26/30/4 25/34/4
f 19/29/4 20/28/4 25/34/4 24/35/4
f 17/27/6 16/26/6 25/34/6 26/30/6
f 10/19/5 11/18/5 22/31/5 23/36/5
f 16/26/6 13/25/6 24/35/6 25/34/6
f 6/16/2 2/15/2 21/32/2 20/28/2
f 13/25/2 8/5/2 19/29/2 24/35/2
