# Blender 4.1.1
# www.blender.org
mtllib cucinadefinitive.mtl
o Cube
v 8.400079 0.064594 -4.544797
v 8.400079 -0.064594 -4.544797
v 8.400079 0.064594 4.729427
v 8.400079 -0.064594 4.729427
v -8.006106 0.064594 -4.544797
v -8.006106 -0.064594 -4.544797
v -8.006106 0.064594 4.729427
v -8.006106 -0.064594 4.729427
v 8.400079 0.064594 4.729427
v 8.400079 -0.064594 4.729427
v -8.006106 0.064594 4.729427
v -8.006106 -0.064594 4.729427
v -8.006106 0.000000 4.729427
v 8.400079 0.000000 4.729427
v 2.680715 0.064594 4.729427
v 2.680715 -0.064594 4.729427
v 2.680715 0.000000 4.729427
v 8.400079 0.000000 8.920475
v 8.400079 -0.064594 8.920475
v 2.680715 -0.064594 8.920475
v 8.400079 0.064594 8.920475
v 2.680715 0.064594 8.920475
v 2.680715 0.000000 8.920475
v 8.620444 0.064594 -4.544797
v 8.620444 -0.064594 -4.544797
v 8.620444 0.064594 4.729427
v 8.620444 -0.064594 4.729427
v 8.620444 0.000000 4.729427
v 8.620444 -0.064594 4.729427
v 8.620444 0.064594 4.729427
v 8.620444 0.000000 8.920475
v 8.620444 -0.064594 8.920475
v 8.620444 0.064594 8.920475
v 8.400079 3.210202 -4.544797
v 8.400079 3.210202 4.729427
v 8.400079 3.210202 4.729427
v 8.400079 3.210202 8.920475
v 8.620444 3.210202 -4.544797
v 8.620444 3.210202 4.729427
v 8.620444 3.210202 4.729427
v 8.620444 3.210202 8.920475
v 8.400079 -0.064594 -4.874301
v -8.006106 -0.064594 -4.874301
v 8.400079 0.064594 -4.874301
v -8.006106 0.064594 -4.874301
v -8.006106 3.217407 -4.544797
v 8.400079 3.217407 -4.544797
v -8.006106 3.217407 -4.874301
v 8.400079 3.217407 -4.874301
vn -0.0000 1.0000 -0.0000
vn -0.0000 -0.0000 1.0000
vn -1.0000 -0.0000 -0.0000
vn -0.0000 -1.0000 -0.0000
vn -0.0000 -0.0000 -1.0000
vn 1.0000 -0.0000 -0.0000
vt 3.255968 2.503886
vt -2.247165 2.503886
vt -2.247165 -0.574650
vt 3.255968 -0.574650
vt 0.375000 0.875000
vt 0.500000 0.875000
vt 0.500000 1.000000
vt 0.375000 1.000000
vt 0.375000 0.000000
vt 0.625000 0.000000
vt 0.625000 0.250000
vt 0.375000 0.250000
vt 0.125000 0.500000
vt 0.375000 0.500000
vt 0.375000 0.750000
vt 0.125000 0.750000
vt 0.000000 0.000000
vt 0.625000 0.875000
vt 0.625000 1.000000
vt 0.500000 0.750000
vt 0.625000 0.750000
vt 1.337519 -0.574650
vt 1.337519 -1.965849
vt 3.255968 -1.965849
vt 0.625000 0.500000
vt 0.398455 0.501443
vt 0.605671 0.501443
vt 0.605671 0.571726
vt 0.398455 0.571726
vt 0.875000 0.500000
s 0
usemtl Material
f 1/1/1 5/2/1 7/3/1 3/4/1
f 16/5/2 17/6/2 13/7/2 12/8/2
f 8/9/3 7/10/3 5/11/3 6/12/3
f 6/13/4 2/14/4 4/15/4 8/16/4
f 30/17/5 9/17/5 36/17/5 40/17/5
f 45/11/3 5/11/3 46/11/3 48/11/3
f 17/6/2 15/18/2 11/19/2 13/7/2
f 4/15/4 2/14/4 25/14/4 27/15/4
f 15/18/3 17/6/3 23/6/3 22/18/3
f 19/15/2 18/20/2 23/6/2 20/5/2
f 18/20/2 21/21/2 22/18/2 23/6/2
f 16/17/4 10/17/4 19/17/4 20/17/4
f 3/17/2 4/17/2 27/17/2 26/17/2
f 17/6/3 16/5/3 20/5/3 23/6/3
f 9/4/1 15/22/1 22/23/1 21/24/1
f 25/14/6 24/25/6 26/21/6 27/15/6
f 28/17/6 30/17/6 33/17/6 31/17/6
f 29/17/6 28/17/6 31/17/6 32/17/6
f 2/14/5 1/25/5 24/25/5 25/14/5
f 21/21/2 18/20/2 31/20/2 33/21/2
f 10/17/5 14/17/5 28/17/5 29/17/5
f 19/17/4 10/17/4 29/17/4 32/17/4
f 14/17/5 9/17/5 30/17/5 28/17/5
f 9/17/3 21/17/3 37/17/3 36/17/3
f 18/20/2 19/15/2 32/15/2 31/20/2
f 36/17/1 37/17/1 41/17/1 40/17/1
f 34/25/1 35/21/1 39/21/1 38/25/1
f 33/17/6 30/17/6 40/17/6 41/17/6
f 24/25/5 1/25/5 34/25/5 38/25/5
f 1/26/3 3/27/3 35/28/3 34/29/3
f 21/21/2 33/21/2 41/21/2 37/21/2
f 26/21/6 24/25/6 38/25/6 39/21/6
f 3/17/2 26/17/2 39/17/2 35/17/2
f 43/12/5 45/11/5 44/25/5 42/14/5
f 1/25/6 2/14/6 42/14/6 44/25/6
f 6/12/3 5/11/3 45/11/3 43/12/3
f 2/14/4 6/13/4 43/13/4 42/14/4
f 46/30/1 47/25/1 49/25/1 48/30/1
f 44/25/5 45/11/5 48/11/5 49/25/5
f 5/30/2 1/25/2 47/25/2 46/30/2
f 1/25/6 44/25/6 49/25/6 47/25/6
