# Blender 4.1.1
# www.blender.org
mtllib PerfectKitchen.mtl
o Cube
v -7.001578 -0.131125 2.973308
v -7.001578 0.131125 2.973308
v -7.001578 -0.131125 -2.973308
v -7.001578 0.131125 -2.973308
v 7.001578 -0.131125 2.973308
v 7.001578 0.131125 2.973308
v 7.001578 -0.131125 -2.973308
v 7.001578 0.131125 -2.973308
v -7.001578 0.000000 2.973308
v 1.866326 -0.131125 2.973308
v 1.866326 0.131125 2.973308
v 1.866326 0.000000 2.973308
v 7.001578 0.000000 7.686766
v 7.001578 -0.131125 7.686766
v 1.866326 -0.131125 7.686766
v 7.001578 0.131125 7.686766
v 1.866326 0.131125 7.686766
v 1.866326 0.000000 7.686766
v -7.001578 0.131125 2.973308
v -7.001578 0.131125 -2.973308
v 7.001578 0.131125 -2.973308
v 7.001578 -0.131125 -2.973308
v 7.001578 -0.131125 2.973308
v 7.001578 0.131125 2.973308
v 7.001578 3.628001 -2.973308
v 1.866326 0.131125 2.973308
v 7.001578 -0.131125 7.686766
v 7.001578 0.000000 7.686766
v 7.001578 0.131125 7.686766
v 7.334705 0.131125 -2.973308
v 7.334705 -0.131125 -2.973308
v 7.334705 -0.131125 2.973308
v 7.334705 0.131125 2.973308
v 7.334705 0.000000 2.973308
v 7.334705 -0.131125 7.686766
v 7.334705 0.000000 7.686766
v 7.334705 0.131125 7.686766
v 7.001578 3.628001 2.973308
v 7.001578 3.628001 7.686766
v 7.334705 3.628001 7.686766
v 7.334705 3.628001 -2.973308
v 7.334705 3.628001 2.973308
v -7.001578 0.131125 -3.429708
v -7.001578 -0.131125 -3.429708
v 7.001578 -0.131125 -3.429708
v 7.001578 0.131125 -3.429708
v -7.001578 3.615153 -2.973308
v 7.001578 3.615153 -2.973308
v -7.001578 3.615153 -3.429708
v 7.001578 3.615153 -3.429708
vn -1.0000 -0.0000 -0.0000
vn -0.0000 -1.0000 -0.0000
vn -0.0000 1.0000 -0.0000
vn -0.0000 -0.0000 1.0000
vn 1.0000 -0.0000 -0.0000
vn -0.0000 -0.0000 -1.0000
vt -0.698525 0.291523
vt -0.698525 1.357316
vt 1.651549 1.357316
vt -0.698525 1.439114
vt 1.651549 1.439114
vt 0.789727 0.291523
vt 1.651549 0.291523
vt 1.651549 -0.553254
vt 0.789727 -0.553254
vt 1.707456 -0.553254
vt 1.707456 1.357316
vt 1.707456 0.291523
s 0
usemtl Material
f 1/1/1 9/1/1 2/1/1 4/2/1 3/2/1
f 7/3/2 3/2/2 44/4/2 45/5/2
f 4/2/3 2/1/3 19/1/3 20/2/3
f 12/6/4 11/6/4 2/1/4 9/1/4
f 3/2/2 7/3/2 5/7/2 10/6/2 1/1/2
f 16/8/3 13/8/3 28/8/3 29/8/3
f 10/6/4 12/6/4 9/1/4 1/1/4
f 11/6/1 12/6/1 18/9/1 17/9/1
f 10/6/2 5/7/2 14/8/2 15/9/2
f 14/8/4 13/8/4 18/9/4 15/9/4
f 13/8/4 16/8/4 17/9/4 18/9/4
f 6/7/3 11/6/3 17/9/3 16/8/3
f 8/3/3 4/2/3 20/2/3 21/3/3
f 11/6/3 6/7/3 24/7/3 26/6/3
f 12/6/1 10/6/1 15/9/1 18/9/1
f 28/8/4 27/8/4 35/10/4 36/10/4
f 21/3/3 20/2/3 19/1/3 26/6/3 24/7/3
f 24/7/1 29/8/1 39/8/1 38/7/1
f 23/7/2 22/3/2 31/11/2 32/12/2
f 7/3/3 8/3/3 21/3/3 22/3/3
f 6/7/3 16/8/3 29/8/3 24/7/3
f 13/8/3 14/8/3 27/8/3 28/8/3
f 14/8/3 5/7/3 23/7/3 27/8/3
f 5/7/3 7/3/3 22/3/3 23/7/3
f 2/1/3 11/6/3 26/6/3 19/1/3
f 31/11/5 30/11/5 33/12/5 34/12/5 32/12/5
f 34/12/5 33/12/5 37/10/5 36/10/5
f 32/12/5 34/12/5 36/10/5 35/10/5
f 29/8/4 37/10/4 40/10/4 39/8/4
f 22/3/6 21/3/6 30/11/6 31/11/6
f 29/8/4 28/8/4 36/10/4 37/10/4
f 27/8/2 23/7/2 32/12/2 35/10/2
f 38/7/3 39/8/3 40/10/3 42/12/3
f 25/3/3 38/7/3 42/12/3 41/11/3
f 37/10/5 33/12/5 42/12/5 40/10/5
f 21/3/1 24/7/1 38/7/1 25/3/1
f 30/11/6 21/3/6 25/3/6 41/11/6
f 33/12/5 30/11/5 41/11/5 42/12/5
f 44/4/6 43/4/6 46/5/6 45/5/6
f 4/2/4 8/3/4 48/3/4 47/2/4
f 3/2/1 4/2/1 43/4/1 44/4/1
f 8/3/5 7/3/5 45/5/5 46/5/5
f 47/2/3 48/3/3 50/5/3 49/4/3
f 46/5/6 43/4/6 49/4/6 50/5/6
f 43/4/1 4/2/1 47/2/1 49/4/1
f 8/3/5 46/5/5 50/5/5 48/3/5
